<svg version="1" xmlns="http://www.w3.org/2000/svg" width="960" height="960" viewBox="0 0 720.000000 720.000000"><path d="M96.7 82.7c-.8 1.5-.4 553.8.4 554.8.9 1.3 109.3 1.4 110.6.2.4-.5.9-69.1.9-152.5.1-83.4.2-152 .3-152.5.2-1.5 1.9-.5 8.2 5 7.5 6.6 17.8 15.6 18.8 16.3.4.3 4 4.1 8.1 8.5 10.4 11.2 28.3 30.4 31.6 34 1.5 1.6 7.1 7.7 12.5 13.5 5.3 5.8 10.6 11.4 11.6 12.6 1.5 1.8 13.2 14.3 28.3 30.5 31.4 33.5 30.8 32.9 31.9 32.9.7 0 9.5-8.8 18.7-18.6 1.6-1.7 8.8-9.3 16-17 7.2-7.6 14.3-15.3 15.8-16.9 1.6-1.7 7.1-7.7 12.4-13.4 13.1-13.9 13.3-14.2 24.2-26 5.2-5.7 10.9-11.8 12.5-13.6 1.7-1.7 6.8-7.4 11.5-12.5 10.8-11.8 11.4-12.4 19-19 3.5-3 7.5-6.6 8.9-7.9 6.9-6.3 11.3-9.4 11.9-8.4.4.6.7 69.4.7 152.8 0 102.5.3 151.9 1 152.3 1.7 1.2 109.5.9 110.4-.3.5-.5.8-125.6.8-277.8 0-243.1-.2-277-1.5-277.4-1-.4-16.6 14.7-48.1 46.5-53.8 54.4-196.3 198.2-206.5 208.3-3.8 3.8-7.2 6.9-7.6 6.9-.7 0-37.8-37.1-100.7-100.6C135.3 118 99.3 82 98.3 82c-.6 0-1.4.3-1.6.7z"/></svg>