<svg xmlns="http://www.w3.org/2000/svg" viewBox="0 0 1442.58 341.21"><defs><style>.cls-1{fill:#212121;}</style></defs><title>logo</title><g id="Layer_2" data-name="Layer 2"><g id="Black"><path class="cls-1" d="M1109.29,297.9A99.21,99.21,0,0,0,1144,339c-8.14,4.53-12.29,1-15.88-1.06-46-26.81-94.8-47-145.46-63-4.77-1.51-9.61-3.14-13.22-7.62-9.29-11.5-9.71-11.38-14.31,1-2.9,7.79-7.55,2.85-11,1.49-29.92-12-59.19-25.85-89.68-36.08-33-11.08-62.84-25.44-83.61-54.65-2.55-3.59-5.85-7.38-12-6.42,2.51,21-.59,40.5-12.47,59-4.42,6.91,5.75,15.12,8.83,27.39-30.18-20.73-54.24-42-67.79-72.54-9.07-20.43-29.06-30.83-40.77-48.57-.87-1.31-4.31-2.06-6-1.46-3.16,1.13-3.73,4.41-2.38,7.24,6.9,14.5,6.93,31.41,16.77,45,5.75,7.95,14,14.87,5.54,28.33-3.72,5.93,4.62,19.26,7.09,29.32.77,3.13,4.07,6,.57,11.32-14.74-12.56-23.75-29.1-33-44.88-12.46-21.3-22.75-43.45-28.07-68.34-5-23.14-25.07-39.2-36.28-59.82-2.37-4.37-9.09-9.16-13.55-.66-5.49,10.44-12.7,13.81-24.67,17.91-13.13,4.5-29.57,10.87-40.77,23.4-6.72,7.52-12.42,18.66-28.09,12.88-6.64-2.45-13.47,9.55-17.63,17-23.79,42.5-56.89,76.47-95.41,105.57C333.31,274,330.27,272.89,325,251.67c-.74-3-1.8-5.63-4.75-6.68-14.39-5.15-26.54-13.75-37.64-24-5.86-5.42-10.54-1.48-15.22,2-28.58,21.4-57.46,42.4-85.5,64.47-8.43,6.64-17,8.2-25.65,4.93-14.47-5.46-30.17-8-43.22-17-12.26-8.53-25-8.18-37.51-1.06-17.52,10-34.77,20.46-52,30.88C16,309.7,8.64,313.81,0,308c.36-6.41,5.73-7.47,9.33-9.5C35.56,283.59,59,264.93,81.92,245.58c9.28-7.85,16.76-10.86,26.38-.52,5.39,5.8,12.69,9.93,19.42,14.35,15.64,10.26,31.11,10.29,46.69-.72,34.79-24.6,72.67-44.67,105.13-72.76,9.47-8.19,21.5-17.58,29.5,2.78a6.29,6.29,0,0,0,6.72,4.34c12.23-1.13,16.05,8.21,18.82,16.77,4.55,14,10.26,12,18.51,3.33,6-6.24,12.62-11.84,19.18-17.47,2.55-2.19,7.21-5.93,8.34-5.17,18.92,12.81,16.81-6.85,21.27-14.24,5.06-8.39,9.07-17.11,17.2-23.33,15.8-12.07,18.52-31.23,25.28-48.2,4.33-10.85,6.76-20.45,24.32-13.39,9.51,3.83,24.84-3.82,33.31-14.83q21.6-28.08,42.81-56.46c4.86-6.47,9.2-13.41,16.7-17.19,8.87-4.48,16.07-4.63,21.2,6.21,3.39,7.17,8.84,13.41,13.76,19.76,1.61,2.08,4.82,4.89,6.69,4.49,27.23-5.84,39.36,15.45,54,30.77,10.23,10.72,17.37,24.34,26.74,36,3,3.75,7.12,10.71,14.12,5.36,10.87-8.31,19.47-2.39,29.64,2.47,26.69,12.77,47.67,33.88,73.59,48,19.87,10.82,35.39,3.93,48.4-7.46,12.75-11.17,27.14-19.12,40.75-28.54,22.74-15.73,46.17-30.47,68.9-46.23,7.51-5.2,12.88-6.47,18.48,2,2.41,3.66,5.51,8.39,11,6.46,30.58-10.66,63-18.46,86-43.15,7.79-8.34,10.77-5.57,17.76-.51,32.28,23.4,57,55.76,91.1,76.89,13.1,8.11,25.75,21.82,39.92.69,3.17-4.73,11.54-5.31,16-1.52,15.55,13.17,32.5,25,37,47.64,3.24,16.38,2.12,34.43,14.19,48.34,3.45.62,6.78-1.87,10.27-.4,10-3.66,16.62-20.25,23.16-17.89,15.21,5.49,29.72,15.62,41.64,26.9,24.2,22.93,46.57,47.8,69.52,72,3.93,4.15,7.26,9,7.2,17.29-17.77-.78-30.86-11.41-44.54-19.85a533.85,533.85,0,0,0-54.72-29c-17.67-8.25-36-12-53.45-19.34-16.17-6.79-21.37-24.79-33.26-36.24a48.18,48.18,0,0,1-11.93-18.85c-7.44-22.55-27.87-25.54-45.36-33.75-3.79,9.24,17.86,15.62.69,24.21-.34,1.52-1.23,2-2.66,1.34-6.25,3.86-1.2,11-4.66,15.87-6.3.72-6.38-5.38-9.08-8.48-4.68-5.4-11.36-9.19-16-3.13-8.44,11-11.4,6.46-18.18-1.87-9.94-12.2-20.35-23.94-36.85-29.78-17.54-6.21-28.13-23.34-42.63-34.64-16.79-13.08-51.63-16.62-69.51-5.55-6.49,4-12.07,2.26-18.15,1.72-19.07-1.71-36-1.4-53.08,12.51-26.74,21.78-53.5,45.26-89.19,52.59-2.91.6-5.83,1.74-6,5.13-.24,4.37,3.53,5.48,6.7,6.78,15.45,6.32,31,12.42,46.37,18.93,8.71,3.68,17.58-3.23,26.45,1.15,3.13,1.54,4.89-2.83,4.57-5.55-1.92-16.34,6.84-11.7,15.1-7.84,11.89,5.57,24.9,9.61,30.95,23.12,1.78,4,5.81,5.3,9.72,6.56,47.7,15.38,90.37,43.22,139,56.31,5.57,1.49,13.29,2.78,11.48,12.11C1120.25,297.29,1112.14,289.67,1109.29,297.9Z"/></g></g></svg>